<svg width="1400" height="1400" viewBox="0 0 1000 1000" xmlns="http://www.w3.org/2000/svg" style="background:#000">
  <defs>
    <!-- sehr dezente Lichtdusche -->
    <radialGradient id="lightwash" cx="50%" cy="50%" r="65%">
      <stop offset="0%"  stop-color="#fff" stop-opacity="0.10"/>
      <stop offset="40%" stop-color="#fff" stop-opacity="0.05"/>
      <stop offset="70%" stop-color="#fff" stop-opacity="0.02"/>
      <stop offset="100%" stop-color="#000" stop-opacity="0"/>
    </radialGradient>

    <!-- weiches Weißglühen -->
    <filter id="glow" x="-60%" y="-60%" width="220%" height="220%">
      <feGaussianBlur stdDeviation="2" result="b"/>
      <feMerge><feMergeNode in="b"/><feMergeNode in="SourceGraphic"/></feMerge>
    </filter>

    <!-- Clip auf den Kreis -->
    <clipPath id="clipClock"><circle cx="500" cy="500" r="200"/></clipPath>

    <!-- Grundlinien -->
    <line id="minLine"  x1="500" y1="300" x2="500" y2="700" stroke="#00ffff" stroke-width="0.45" stroke-linecap="round" opacity="0.35"/>
    <line id="hourLine" x1="500" y1="300" x2="500" y2="700" stroke="#fff" stroke-width="1.4"  stroke-linecap="round" opacity="0.70"/>
  </defs>

  <!-- Lichtdusche-Hintergrund -->
  <rect x="0" y="0" width="1000" height="1000" fill="url(#lightwash)"/>

  <!-- Hauptkreis -->
  <circle cx="500" cy="500" r="200" fill="none" stroke="#fff" stroke-width="2" filter="url(#glow)"/>

  <!-- Minuten (Iris) -->
  <g clip-path="url(#clipClock)" filter="url(#glow)">
    <!-- 60 Minutenstriche -->
    <use href="#minLine" transform="rotate(0 500 500)"/>
    <use href="#minLine" transform="rotate(6 500 500)"/>
    <use href="#minLine" transform="rotate(12 500 500)"/>
    <use href="#minLine" transform="rotate(18 500 500)"/>
    <use href="#minLine" transform="rotate(24 500 500)"/>
    <use href="#minLine" transform="rotate(30 500 500)"/>
    <use href="#minLine" transform="rotate(36 500 500)"/>
    <use href="#minLine" transform="rotate(42 500 500)"/>
    <use href="#minLine" transform="rotate(48 500 500)"/>
    <use href="#minLine" transform="rotate(54 500 500)"/>
    <use href="#minLine" transform="rotate(60 500 500)"/>
    <use href="#minLine" transform="rotate(66 500 500)"/>
    <use href="#minLine" transform="rotate(72 500 500)"/>
    <use href="#minLine" transform="rotate(78 500 500)"/>
    <use href="#minLine" transform="rotate(84 500 500)"/>
    <use href="#minLine" transform="rotate(90 500 500)"/>
    <use href="#minLine" transform="rotate(96 500 500)"/>
    <use href="#minLine" transform="rotate(102 500 500)"/>
    <use href="#minLine" transform="rotate(108 500 500)"/>
    <use href="#minLine" transform="rotate(114 500 500)"/>
    <use href="#minLine" transform="rotate(120 500 500)"/>
    <use href="#minLine" transform="rotate(126 500 500)"/>
    <use href="#minLine" transform="rotate(132 500 500)"/>
    <use href="#minLine" transform="rotate(138 500 500)"/>
    <use href="#minLine" transform="rotate(144 500 500)"/>
    <use href="#minLine" transform="rotate(150 500 500)"/>
    <use href="#minLine" transform="rotate(156 500 500)"/>
    <use href="#minLine" transform="rotate(162 500 500)"/>
    <use href="#minLine" transform="rotate(168 500 500)"/>
    <use href="#minLine" transform="rotate(174 500 500)"/>
    <use href="#minLine" transform="rotate(180 500 500)"/>
    <use href="#minLine" transform="rotate(186 500 500)"/>
    <use href="#minLine" transform="rotate(192 500 500)"/>
    <use href="#minLine" transform="rotate(198 500 500)"/>
    <use href="#minLine" transform="rotate(204 500 500)"/>
    <use href="#minLine" transform="rotate(210 500 500)"/>
    <use href="#minLine" transform="rotate(216 500 500)"/>
    <use href="#minLine" transform="rotate(222 500 500)"/>
    <use href="#minLine" transform="rotate(228 500 500)"/>
    <use href="#minLine" transform="rotate(234 500 500)"/>
    <use href="#minLine" transform="rotate(240 500 500)"/>
    <use href="#minLine" transform="rotate(246 500 500)"/>
    <use href="#minLine" transform="rotate(252 500 500)"/>
    <use href="#minLine" transform="rotate(258 500 500)"/>
    <use href="#minLine" transform="rotate(264 500 500)"/>
    <use href="#minLine" transform="rotate(270 500 500)"/>
    <use href="#minLine" transform="rotate(276 500 500)"/>
    <use href="#minLine" transform="rotate(282 500 500)"/>
    <use href="#minLine" transform="rotate(288 500 500)"/>
    <use href="#minLine" transform="rotate(294 500 500)"/>
    <use href="#minLine" transform="rotate(300 500 500)"/>
    <use href="#minLine" transform="rotate(306 500 500)"/>
    <use href="#minLine" transform="rotate(312 500 500)"/>
    <use href="#minLine" transform="rotate(318 500 500)"/>
    <use href="#minLine" transform="rotate(324 500 500)"/>
    <use href="#minLine" transform="rotate(330 500 500)"/>
    <use href="#minLine" transform="rotate(336 500 500)"/>
    <use href="#minLine" transform="rotate(342 500 500)"/>
    <use href="#minLine" transform="rotate(348 500 500)"/>
    <use href="#minLine" transform="rotate(354 500 500)"/>
  </g>

  <!-- Stundenlinien -->
  <g clip-path="url(#clipClock)" filter="url(#glow)">
    <use href="#hourLine" transform="rotate(0 500 500)"/>
    <use href="#hourLine" transform="rotate(30 500 500)"/>
    <use href="#hourLine" transform="rotate(60 500 500)"/>
    <use href="#hourLine" transform="rotate(90 500 500)"/>
    <use href="#hourLine" transform="rotate(120 500 500)"/>
    <use href="#hourLine" transform="rotate(150 500 500)"/>
    <use href="#hourLine" transform="rotate(180 500 500)"/>
    <use href="#hourLine" transform="rotate(210 500 500)"/>
    <use href="#hourLine" transform="rotate(240 500 500)"/>
    <use href="#hourLine" transform="rotate(270 500 500)"/>
    <use href="#hourLine" transform="rotate(300 500 500)"/>
    <use href="#hourLine" transform="rotate(330 500 500)"/>
  </g>

  <!-- Innerer Kern -->
  <circle cx="500" cy="500" r="60" fill="#fff" filter="url(#glow)"/>
  <text x="500" y="505" font-family="Garamond, serif" font-size="22" fill="#000" font-weight="bold" text-anchor="middle" alignment-baseline="middle">M</text>

  <!-- Labels -->
  <g font-family="Garamond, serif" fill="#fff" text-anchor="middle">
    <text x="500" y="140" font-size="20"><tspan x="500">M</tspan><tspan x="500" dy="20" font-size="14">featuring Palantir</tspan></text>
    <text x="650" y="190" font-size="20"><tspan x="650">m-pathy</tspan><tspan x="650" dy="20" font-size="14">featuring DeepMind Core</tspan></text>
    <text x="790" y="310" font-size="20"><tspan x="790">m-ocean</tspan><tspan x="790" dy="20" font-size="14">featuring Anthropic Vision</tspan></text>
    <text x="860" y="500" font-size="20"><tspan x="860">m-inent</tspan><tspan x="860" dy="20" font-size="14">featuring NASA Chronos</tspan></text>
    <text x="790" y="690" font-size="20"><tspan x="790">m-erge</tspan><tspan x="790" dy="20" font-size="14">featuring IBM Q-Origin</tspan></text>
    <text x="650" y="810" font-size="20"><tspan x="650">m-power</tspan><tspan x="650" dy="20" font-size="14">featuring Colossus</tspan></text>
    <text x="500" y="870" font-size="20"><tspan x="500">m-body</tspan><tspan x="500" dy="20" font-size="14">featuring XAI Prime</tspan></text>
    <text x="350" y="810" font-size="20"><tspan x="350">m-beded</tspan><tspan x="350" dy="20" font-size="14">featuring Meta Lattice</tspan></text>
    <text x="210" y="690" font-size="20"><tspan x="210">m-loop</tspan><tspan x="210" dy="20" font-size="14">featuring OpenAI Root</tspan></text>
    <text x="140" y="500" font-size="20"><tspan x="140">m-pire</tspan><tspan x="140" dy="20" font-size="14">featuring Amazon Nexus</tspan></text>
    <text x="210" y="310" font-size="20"><tspan x="210">m-bassy</tspan><tspan x="210" dy="20" font-size="14">featuring Oracle Gaia</tspan></text>
    <text x="350" y="190" font-size="20"><tspan x="350">m-ballance</tspan><tspan x="350" dy="20" font-size="14">featuring Gemini Apex</tspan></text>
  </g>

  <text x="500" y="960" font-family="Garamond, serif" font-size="22" fill="#fff" text-anchor="middle">MU TAH – Architect of Zero</text>
</svg>
